Coordinates
version=1
nRows=65
nColumns=12
inDegrees=yes

Units are S.I. units (second, meters, Newtons, ...)
Angles are in degrees

endheader
time	SC_y	SC_z	SC_x	AC_y	AC_z	AC_x	GH_y	GH_z	GH_yy	EL_x	PS_y
       0.0              -57.47          35.66          3.928          69.06          5.206         -4.865          170.6         -4.382          171.8          118.8          66.04
   0.01299              -57.47          35.65          3.934          69.06          5.203         -4.862          170.6         -4.382          171.8          118.7          66.04
   0.02598              -57.47          35.65          3.939          69.05            5.2          -4.86          170.5         -4.381          171.8          118.7          66.04
   0.03897              -57.47          35.64          3.945          69.05          5.197         -4.858          170.5         -4.381          171.8          118.7          66.04
   0.05195              -57.47          35.64          3.951          69.05          5.193         -4.855          170.4         -4.381          171.8          118.7          66.04
   0.06494              -57.47          35.63          3.957          69.05           5.19         -4.852          170.4         -4.381          171.8          118.7          66.03
   0.07793              -57.46          35.63          3.965          69.04          5.185         -4.849          170.3         -4.381          171.8          118.7          66.03
   0.09092              -57.46          35.62          3.972          69.04          5.181         -4.846          170.2         -4.381          171.8          118.7          66.03
    0.1039              -57.46          35.62           3.98          69.04          5.176         -4.842          170.2          -4.38          171.8          118.7          66.03
    0.1169              -57.46          35.61          3.989          69.03          5.172         -4.839          170.1          -4.38          171.8          118.7          66.02
    0.1299              -57.46          35.61          3.998          69.03          5.166         -4.835          170.0          -4.38          171.8          118.7          66.02
    0.1429              -57.45           35.6          4.008          69.02           5.16          -4.83          169.9          -4.38          171.8          118.7          66.02
    0.1559              -57.45          35.59          4.019          69.02          5.154         -4.826          169.9          -4.38          171.8          118.7          66.01
    0.1689              -57.45          35.58           4.03          69.02          5.148         -4.821          169.8         -4.379          171.8          118.7          66.01
    0.1818              -57.45          35.57          4.043          69.01           5.14         -4.815          169.7         -4.379          171.7          118.7           66.0
    0.1948              -57.44          35.56          4.056           69.0          5.132          -4.81          169.6         -4.379          171.7          118.7           66.0
    0.2078              -57.44          35.55          4.071           69.0          5.124         -4.803          169.4         -4.378          171.7          118.7           66.0
    0.2208              -57.44          35.54          4.087          68.99          5.115         -4.796          169.3         -4.378          171.7          118.7          65.99
    0.2338              -57.43          35.53          4.105          68.98          5.104         -4.789          169.2         -4.378          171.7          118.7          65.98
    0.2468              -57.43          35.52          4.124          68.98          5.093          -4.78          169.0         -4.377          171.7          118.6          65.98
    0.2598              -57.42           35.5          4.145          68.97          5.081         -4.771          168.8         -4.377          171.7          118.6          65.97
    0.2728              -57.42          35.48          4.168          68.96          5.068         -4.761          168.6         -4.376          171.7          118.6          65.96
    0.2858              -57.41          35.47          4.194          68.95          5.053          -4.75          168.4         -4.376          171.7          118.6          65.95
    0.2987               -57.4          35.45          4.223          68.93          5.036         -4.738          168.2         -4.375          171.7          118.6          65.94
    0.3117               -57.4          35.42          4.254          68.92          5.018         -4.724          167.9         -4.374          171.6          118.6          65.93
    0.3247              -57.39           35.4           4.29          68.91          4.998         -4.709          167.6         -4.373          171.6          118.6          65.92
    0.3377              -57.38          35.37          4.329          68.89          4.975         -4.692          167.3         -4.373          171.6          118.5          65.91
    0.3507              -57.37          35.34          4.374          68.87          4.949         -4.673          167.0         -4.372          171.6          118.5          65.89
    0.3637              -57.36           35.3          4.424          68.85           4.92         -4.651          166.6          -4.37          171.6          118.5          65.88
    0.3767              -57.34          35.26          4.481          68.83          4.887         -4.627          166.1         -4.369          171.5          118.4          65.86
    0.3897              -57.33          35.22          4.546           68.8          4.849         -4.598          165.6         -4.368          171.5          118.4          65.84
    0.4026              -57.31          35.16          4.621          68.77          4.806         -4.566          164.9         -4.366          171.5          118.4          65.81
    0.4156              -57.29           35.1          4.707          68.73          4.756         -4.529          164.2         -4.364          171.4          118.3          65.78
    0.4286              -57.26          35.03          4.808          68.69          4.698         -4.486          163.4         -4.362          171.4          118.3          65.75
    0.4416              -57.24          34.95          4.925          68.64           4.63         -4.435          162.5         -4.359          171.3          118.2          65.71
    0.4546               -57.2          34.85          5.063          68.58          4.551         -4.376          161.3         -4.356          171.3          118.1          65.66
    0.4676              -57.17          34.73          5.228          68.51          4.456         -4.305          160.0         -4.352          171.2          118.0          65.61
    0.4806              -57.12          34.59          5.425          68.43          4.342          -4.22          158.4         -4.348          171.1          117.9          65.54
    0.4936              -57.06          34.42          5.664          68.33          4.204         -4.117          156.4         -4.342          171.0          117.8          65.46
    0.5066              -56.99          34.21          5.955          68.21          4.035         -3.991          154.1         -4.336          170.9          117.6          65.37
    0.5195              -56.91          33.96          6.314          68.06          3.828         -3.836          151.1         -4.328          170.7          117.4          65.25
    0.5325               -56.8          33.64          6.763          67.87          3.569         -3.643          147.5         -4.317          170.5          117.2           65.1
    0.5455              -56.67          33.23          7.328          67.63          3.242           -3.4          142.9         -4.305          170.2          116.9          64.91
    0.5585               -56.5          32.72          8.046          67.33          2.827          -3.09          137.0         -4.288          169.9          116.5          64.67
    0.5715              -56.28          32.07          8.965          66.94          2.296         -2.694          129.5         -4.268          169.5          116.0          64.36
    0.5845               -56.0          31.23          10.14          66.45          1.615         -2.186          119.9         -4.241          168.9          115.3          63.97
    0.5975              -55.64          30.16          11.65          65.81         0.7444         -1.537          107.6         -4.207          168.3          114.5          63.47
    0.6105              -55.19          28.81          13.55          65.02        -0.3501        -0.7204          92.17         -4.164          167.4          113.4          62.84
    0.6235              -54.65          27.16          15.85          64.05         -1.684         0.2745          73.35         -4.111          166.3          112.2          62.07
    0.6364              -54.01          25.26          18.53          62.92          -3.23          1.428          51.53         -4.051          165.1          110.7          61.17
    0.6494              -53.32           23.2          21.43           61.7         -4.904          2.676           27.9         -3.985          163.8          109.1          60.21
    0.6624              -52.64          21.13          24.32          60.49         -6.578          3.925          4.274         -3.919          162.4          107.5          59.24
    0.6754               -52.0          19.23           27.0          59.36         -8.124          5.078         -17.55         -3.859          161.2          106.0          58.35
    0.6884              -51.45          17.58          29.31          58.39         -9.458          6.073         -36.37         -3.807          160.2          104.7          57.58
    0.7014              -51.01          16.23           31.2          57.59         -10.55          6.889         -51.82         -3.764          159.3          103.7          56.95
    0.7144              -50.65          15.16          32.71          56.96         -11.42          7.538          -64.1         -3.729          158.6          102.9          56.44
    0.7274              -50.37          14.32          33.89          56.47          -12.1          8.047         -73.72         -3.703          158.1          102.2          56.05
    0.7404              -50.15          13.67          34.81          56.08         -12.64          8.443         -81.22         -3.682          157.6          101.7          55.75
    0.7533              -49.98          13.16          35.53          55.78         -13.05          8.752         -87.07         -3.666          157.3          101.3          55.51
    0.7663              -49.85          12.75          36.09          55.54         -13.38          8.996         -91.68         -3.653          157.1          101.0          55.32
    0.7793              -49.74          12.43          36.54          55.35         -13.64          9.189         -95.33         -3.643          156.8          100.8          55.17
    0.7923              -49.65          12.18           36.9           55.2         -13.84          9.344         -98.27         -3.635          156.7          100.6          55.05
    0.8053              -49.59          11.97          37.19          55.08         -14.01          9.469         -100.6         -3.628          156.6          100.4          54.95
    0.8183              -49.53           11.8          37.43          54.98         -14.15          9.572         -102.6         -3.623          156.4          100.3          54.87
    0.8313              -49.48          11.66          37.63          54.89         -14.26          9.657         -104.2         -3.618          156.4          100.2          54.81
